<svg width="188" height="45" viewBox="0 0 188 45" fill="none" xmlns="http://www.w3.org/2000/svg">
<path d="M41.52 35.03C42.86 35.03 43.8 34.55 44.34 33.59C44.88 32.61 45.15 31.62 45.15 30.62C45.15 29.48 44.91 28.46 44.43 27.56C43.95 26.66 42.98 26.21 41.52 26.21C41.1 26.21 40.66 26.29 40.2 26.45C39.76 26.59 39.34 26.79 38.94 27.05V34.19C39.34 34.43 39.76 34.63 40.2 34.79C40.66 34.95 41.1 35.03 41.52 35.03ZM35.07 23.45H37.05L37.89 24.53C38.55 24.03 39.32 23.63 40.2 23.33C41.08 23.03 41.86 22.88 42.54 22.88C44.68 22.88 46.32 23.62 47.46 25.1C48.6 26.58 49.17 28.42 49.17 30.62C49.17 32.82 48.58 34.66 47.4 36.14C46.24 37.62 44.62 38.36 42.54 38.36C42.02 38.36 41.43 38.27 40.77 38.09C40.13 37.91 39.52 37.66 38.94 37.34V44.27L35.07 44.57V23.45ZM56.3716 16.82V38H52.5016V17.15L56.3716 16.82ZM63.1704 33.65C63.1704 34.07 63.3404 34.45 63.6804 34.79C64.0204 35.11 64.4704 35.27 65.0304 35.27C65.5704 35.27 66.1104 35.15 66.6504 34.91C67.2104 34.67 67.7404 34.31 68.2404 33.83V31.61H65.3004C64.6204 31.61 64.0904 31.82 63.7104 32.24C63.3504 32.66 63.1704 33.13 63.1704 33.65ZM65.0904 38.36C63.3104 38.36 61.9904 37.93 61.1304 37.07C60.2704 36.19 59.8404 35.05 59.8404 33.65C59.8404 32.15 60.3504 31 61.3704 30.2C62.3904 29.4 63.7204 29 65.3604 29H68.2104C68.1904 28.26 67.9704 27.69 67.5504 27.29C67.1504 26.87 66.5904 26.66 65.8704 26.66C65.1904 26.66 64.4504 26.76 63.6504 26.96C62.8504 27.14 62.1804 27.36 61.6404 27.62L60.5904 24.38C61.1504 24 62.0004 23.69 63.1404 23.45C64.3004 23.19 65.1904 23.06 65.8104 23.06C67.5504 23.06 69.0404 23.57 70.2804 24.59C71.5204 25.59 72.1404 26.87 72.1404 28.43V38H70.1304L69.1704 36.77C68.6304 37.19 67.9904 37.56 67.2504 37.88C66.5304 38.2 65.8104 38.36 65.0904 38.36ZM78.5491 38.69L79.2391 36.98L74.0491 23.99L78.0691 23.45L81.4291 32.27L84.6091 23.45H88.7191L82.2091 39.92C81.7491 41.1 80.9391 42.11 79.7791 42.95C78.6191 43.79 77.3991 44.36 76.1191 44.66L74.7391 41.45C75.4391 41.15 76.1791 40.78 76.9591 40.34C77.7591 39.92 78.2891 39.37 78.5491 38.69ZM97.7791 26.21C96.4191 26.21 95.4691 26.69 94.9291 27.65C94.4091 28.61 94.1491 29.6 94.1491 30.62C94.1491 31.76 94.3891 32.78 94.8691 33.68C95.3491 34.58 96.3191 35.03 97.7791 35.03C98.2391 35.03 98.7191 34.93 99.2191 34.73C99.7391 34.51 100.219 34.26 100.659 33.98V27.26C100.219 26.96 99.7391 26.71 99.2191 26.51C98.7191 26.31 98.2391 26.21 97.7791 26.21ZM104.589 23.45V37.97C104.589 39.73 103.989 41.2 102.789 42.38C101.609 43.58 99.7291 44.18 97.1491 44.18C96.5291 44.18 95.6291 44.03 94.4491 43.73C93.2691 43.45 92.2891 43.05 91.5091 42.53L92.6791 39.77C93.5791 40.21 94.3491 40.53 94.9891 40.73C95.6291 40.93 96.3191 41.03 97.0591 41.03C98.2191 41.03 99.1091 40.75 99.7291 40.19C100.349 39.65 100.659 38.9 100.659 37.94V37.19C100.039 37.55 99.3791 37.83 98.6791 38.03C97.9791 38.25 97.3291 38.36 96.7291 38.36C94.6091 38.36 92.9791 37.62 91.8391 36.14C90.6991 34.66 90.1291 32.82 90.1291 30.62C90.1291 28.42 90.7291 26.58 91.9291 25.1C93.1491 23.62 94.8091 22.88 96.9091 22.88C97.6291 22.88 98.4391 23.04 99.3391 23.36C100.239 23.66 101.009 24.09 101.649 24.65L102.549 23.45H104.589ZM116.463 23.45L117.243 26.57C116.583 26.57 115.813 26.76 114.933 27.14C114.073 27.52 113.223 28.08 112.383 28.82V38H108.483V23.45H110.523L111.813 25.58C112.413 25.06 113.143 24.58 114.003 24.14C114.863 23.68 115.683 23.45 116.463 23.45ZM125.955 38.36C123.655 38.36 121.855 37.67 120.555 36.29C119.275 34.89 118.635 33.02 118.635 30.68C118.635 28.36 119.305 26.51 120.645 25.13C122.005 23.75 123.855 23.06 126.195 23.06C128.615 23.06 130.485 23.78 131.805 25.22C133.145 26.64 133.815 28.51 133.815 30.83C133.815 33.15 133.095 34.99 131.655 36.35C130.215 37.69 128.315 38.36 125.955 38.36ZM129.795 30.83C129.795 29.45 129.485 28.37 128.865 27.59C128.265 26.79 127.405 26.39 126.285 26.39C125.145 26.39 124.255 26.74 123.615 27.44C122.975 28.14 122.655 29.21 122.655 30.65C122.655 32.09 122.925 33.18 123.465 33.92C124.025 34.66 124.875 35.03 126.015 35.03C127.135 35.03 128.045 34.7 128.745 34.04C129.445 33.36 129.795 32.29 129.795 30.83ZM147.28 36.56C146.62 37.18 145.81 37.67 144.85 38.03C143.89 38.41 143.02 38.6 142.24 38.6C140.26 38.6 138.85 38.02 138.01 36.86C137.19 35.68 136.78 34.26 136.78 32.6V23.45H140.71V32.42C140.71 33.34 140.93 34.05 141.37 34.55C141.81 35.03 142.45 35.27 143.29 35.27C143.81 35.27 144.36 35.14 144.94 34.88C145.52 34.62 146.05 34.32 146.53 33.98V23.45H150.43V38H148.39L147.28 36.56ZM157.396 25.01C158.056 24.35 158.876 23.83 159.856 23.45C160.856 23.07 161.746 22.88 162.526 22.88C164.506 22.88 165.906 23.46 166.726 24.62C167.566 25.78 167.986 27.2 167.986 28.88V38H164.086V29.06C164.086 28.14 163.866 27.44 163.426 26.96C162.986 26.46 162.346 26.21 161.506 26.21C160.946 26.21 160.356 26.36 159.736 26.66C159.136 26.94 158.586 27.27 158.086 27.65V38H154.186V23.45H156.226L157.396 25.01ZM178.639 26.21C177.279 26.21 176.329 26.69 175.789 27.65C175.269 28.61 175.009 29.6 175.009 30.62C175.009 31.76 175.249 32.78 175.729 33.68C176.209 34.58 177.179 35.03 178.639 35.03C179.099 35.03 179.579 34.93 180.079 34.73C180.599 34.51 181.079 34.26 181.519 33.98V27.26C181.079 26.96 180.599 26.71 180.079 26.51C179.579 26.31 179.099 26.21 178.639 26.21ZM185.449 16.82V38H183.409L182.329 36.59C181.669 37.15 180.889 37.59 179.989 37.91C179.109 38.21 178.309 38.36 177.589 38.36C175.469 38.36 173.839 37.62 172.699 36.14C171.559 34.66 170.989 32.82 170.989 30.62C170.989 28.42 171.589 26.58 172.789 25.1C174.009 23.62 175.669 22.88 177.769 22.88C178.309 22.88 178.919 22.98 179.599 23.18C180.279 23.36 180.919 23.62 181.519 23.96V17.15L185.449 16.82Z" fill="black"/>
<path d="M5.11539 2.19231L9.5 0V12C9.5 14.2692 14.6154 16.8077 14.6154 16.8077L0 23.3846V17.5385C0 17.5385 5.11539 14.2692 5.11539 12V2.19231Z" fill="#0029FF"/>
<path d="M3 37.9999C3 37.9999 4.51346 34.7249 6 33C7.51919 31.2372 14.6154 29.2307 14.6154 29.2307V37.9999H3Z" fill="#0029FF" fill-opacity="0.25"/>
<path d="M14.6152 16.8076V29.2307C14.6152 29.2307 17.6177 31.2145 19 33C20.3364 34.7262 21.5 37.9999 21.5 37.9999H24.1152V25.5768L14.6152 16.8076Z" fill="#0029FF" fill-opacity="0.6"/>
</svg>
