<svg width="32" height="32" viewBox="0 0 32 32" fill="none" xmlns="http://www.w3.org/2000/svg">
<path fill-rule="evenodd" clip-rule="evenodd" d="M18.4361 25.9425C25.4845 25.9425 31.1983 20.2286 31.1983 13.1802C31.1983 6.13183 25.4845 0.417969 18.4361 0.417969C11.3877 0.417969 5.67383 6.13183 5.67383 13.1802C5.67383 20.2286 11.3877 25.9425 18.4361 25.9425ZM18.437 22.5389C23.6058 22.5389 27.796 18.3487 27.796 13.1799C27.796 8.01108 23.6058 3.82091 18.437 3.82091C13.2681 3.82091 9.07798 8.01108 9.07798 13.1799C9.07798 18.3487 13.2681 22.5389 18.437 22.5389Z" fill="#151515"/>
<rect x="9.24023" y="18.8521" width="4.25409" height="13.0684" rx="2" transform="rotate(45 9.24023 18.8521)" fill="#151515"/>
<path opacity="0.6" d="M18.4362 20.9788C26.2354 20.9788 26.2354 13.1796 26.2354 13.1796C26.2354 13.1796 23.3993 17.4334 18.4362 13.1796C13.4731 8.92585 10.637 13.1796 10.637 13.1796C10.637 13.1796 10.637 20.9788 18.4362 20.9788Z" fill="#151515"/>
<path d="M18.4349 20.9788C10.6357 20.9788 10.6357 13.1797 10.6357 13.1797C10.6357 13.1797 13.4718 17.4334 18.4349 13.1797C23.398 8.92591 26.2341 13.1797 26.2341 13.1797C26.2341 13.1797 26.2341 20.9788 18.4349 20.9788Z" fill="#151515"/>
</svg>
