<svg width="102" height="24" viewBox="0 0 102 24" fill="none" xmlns="http://www.w3.org/2000/svg">
<path d="M26.22 19.2C25.2733 19.2 24.46 19.0533 23.78 18.76C23.1 18.4533 22.5733 18.0333 22.2 17.5C21.84 16.9667 21.66 16.3467 21.66 15.64H24.12C24.1333 16.2533 24.34 16.7 24.74 16.98C25.14 17.26 25.66 17.4 26.3 17.4C26.9267 17.4 27.4 17.2867 27.72 17.06C28.0533 16.82 28.22 16.4933 28.22 16.08C28.22 15.7467 28.1467 15.4933 28 15.32C27.8533 15.1333 27.6133 14.9933 27.28 14.9C26.9467 14.7933 26.5067 14.7 25.96 14.62C25.0667 14.4867 24.32 14.3067 23.72 14.08C23.12 13.84 22.6733 13.5133 22.38 13.1C22.0867 12.6867 21.94 12.14 21.94 11.46C21.94 10.7933 22.12 10.2133 22.48 9.72C22.84 9.22667 23.3467 8.84667 24 8.58C24.6533 8.3 25.42 8.16 26.3 8.16C27.1533 8.16 27.8933 8.3 28.52 8.58C29.16 8.84667 29.6533 9.23333 30 9.74C30.36 10.2333 30.5467 10.8267 30.56 11.52H28.1C28.1 11.1467 28.02 10.8467 27.86 10.62C27.7133 10.38 27.5 10.2067 27.22 10.1C26.94 9.99333 26.6133 9.94 26.24 9.94C25.68 9.94 25.24 10.06 24.92 10.3C24.6 10.5267 24.44 10.84 24.44 11.24C24.44 11.5333 24.52 11.7733 24.68 11.96C24.8533 12.1333 25.1267 12.2733 25.5 12.38C25.8733 12.4867 26.3533 12.58 26.94 12.66C27.58 12.7533 28.1333 12.8733 28.6 13.02C29.08 13.1667 29.48 13.3667 29.8 13.62C30.12 13.86 30.36 14.1667 30.52 14.54C30.6933 14.9 30.78 15.34 30.78 15.86C30.78 16.9267 30.36 17.7533 29.52 18.34C28.6933 18.9133 27.5933 19.2 26.22 19.2ZM36.6873 19.18C35.8873 19.18 35.1673 19.06 34.5273 18.82C33.8873 18.5667 33.3273 18.2 32.8473 17.72C32.3807 17.24 32.0207 16.66 31.7673 15.98C31.5273 15.3 31.4073 14.5333 31.4073 13.68C31.4073 12.5867 31.614 11.6267 32.0273 10.8C32.454 9.97333 33.0607 9.32667 33.8473 8.86C34.634 8.39333 35.5807 8.16 36.6873 8.16C37.474 8.16 38.1873 8.28667 38.8273 8.54C39.4673 8.79333 40.014 9.16 40.4673 9.64C40.934 10.12 41.294 10.7 41.5473 11.38C41.8007 12.0467 41.9273 12.8133 41.9273 13.68C41.9273 14.76 41.714 15.7133 41.2873 16.54C40.874 17.3667 40.274 18.0133 39.4873 18.48C38.714 18.9467 37.7807 19.18 36.6873 19.18ZM36.6673 17.12C37.214 17.12 37.694 16.9933 38.1073 16.74C38.5207 16.4733 38.8407 16.0867 39.0673 15.58C39.294 15.06 39.4073 14.4267 39.4073 13.68C39.4073 13.12 39.3407 12.6267 39.2073 12.2C39.0873 11.76 38.9073 11.3933 38.6673 11.1C38.4273 10.8067 38.1407 10.5867 37.8073 10.44C37.474 10.2933 37.1007 10.22 36.6873 10.22C36.1407 10.22 35.654 10.3533 35.2273 10.62C34.814 10.8733 34.494 11.26 34.2673 11.78C34.0407 12.2867 33.9273 12.92 33.9273 13.68C33.9273 14.24 33.9873 14.74 34.1073 15.18C34.2407 15.6067 34.4273 15.9667 34.6673 16.26C34.9073 16.54 35.194 16.7533 35.5273 16.9C35.874 17.0467 36.254 17.12 36.6673 17.12ZM43.1423 19V8.36H45.5623L45.6423 10.38H45.7623C46.0557 9.63333 46.509 9.08 47.1223 8.72C47.7357 8.34667 48.409 8.16 49.1423 8.16C49.9157 8.16 50.609 8.34667 51.2223 8.72C51.8357 9.09333 52.2823 9.72 52.5623 10.6H52.7223C53.0023 9.78667 53.469 9.18 54.1223 8.78C54.7757 8.36667 55.5157 8.16 56.3423 8.16C57.049 8.16 57.6757 8.30667 58.2223 8.6C58.7823 8.89333 59.2223 9.36667 59.5423 10.02C59.8623 10.6733 60.0223 11.54 60.0223 12.62V19H57.5223V13.16C57.5223 12.4933 57.449 11.9467 57.3023 11.52C57.1557 11.08 56.9223 10.7533 56.6023 10.54C56.2823 10.3267 55.8757 10.22 55.3823 10.22C54.849 10.22 54.389 10.3533 54.0023 10.62C53.629 10.8867 53.3423 11.24 53.1423 11.68C52.9423 12.12 52.8423 12.6067 52.8423 13.14V19H50.3223V13.16C50.3223 12.4933 50.249 11.9467 50.1023 11.52C49.9557 11.08 49.7223 10.7533 49.4023 10.54C49.0957 10.3267 48.6957 10.22 48.2023 10.22C47.669 10.22 47.209 10.3533 46.8223 10.62C46.449 10.8867 46.1557 11.24 45.9423 11.68C45.7423 12.12 45.6423 12.6067 45.6423 13.14V19H43.1423ZM61.7955 19V8.36H64.2155L64.2955 10.38H64.4155C64.7088 9.63333 65.1621 9.08 65.7755 8.72C66.3888 8.34667 67.0621 8.16 67.7955 8.16C68.5688 8.16 69.2621 8.34667 69.8755 8.72C70.4888 9.09333 70.9355 9.72 71.2155 10.6H71.3755C71.6555 9.78667 72.1221 9.18 72.7755 8.78C73.4288 8.36667 74.1688 8.16 74.9955 8.16C75.7021 8.16 76.3288 8.30667 76.8755 8.6C77.4355 8.89333 77.8755 9.36667 78.1955 10.02C78.5155 10.6733 78.6755 11.54 78.6755 12.62V19H76.1755V13.16C76.1755 12.4933 76.1021 11.9467 75.9555 11.52C75.8088 11.08 75.5755 10.7533 75.2555 10.54C74.9355 10.3267 74.5288 10.22 74.0355 10.22C73.5021 10.22 73.0421 10.3533 72.6555 10.62C72.2821 10.8867 71.9955 11.24 71.7955 11.68C71.5955 12.12 71.4955 12.6067 71.4955 13.14V19H68.9755V13.16C68.9755 12.4933 68.9021 11.9467 68.7555 11.52C68.6088 11.08 68.3755 10.7533 68.0555 10.54C67.7488 10.3267 67.3488 10.22 66.8555 10.22C66.3221 10.22 65.8621 10.3533 65.4755 10.62C65.1021 10.8867 64.8088 11.24 64.5955 11.68C64.3955 12.12 64.2955 12.6067 64.2955 13.14V19H61.7955ZM80.4486 19V8.36H82.9486V19H80.4486ZM80.4486 6.86V4.42H82.9486V6.86H80.4486ZM85.4039 19V10.36H83.7239V8.36H85.4039V7.02C85.4039 6.16667 85.6572 5.52 86.1639 5.08C86.6839 4.64 87.4106 4.42 88.3439 4.42H90.1839V6.18H89.0039C88.5772 6.18 88.2839 6.27333 88.1239 6.46C87.9772 6.64667 87.9039 6.89333 87.9039 7.2V8.36H90.0039V10.36H87.9039V19H85.4039Z" fill="#1C1D1E"/>
<path d="M91.84 22.34V20.28H93.02C93.34 20.28 93.6067 20.24 93.82 20.16C94.0333 20.08 94.2133 19.9533 94.36 19.78C94.5067 19.6067 94.6267 19.3867 94.72 19.12L95.3 17.62V18.74L90.96 8.36H93.7L95.88 14.44L96.28 15.64H96.38L96.74 14.44L98.8 8.36H101.46L97.16 19.7C96.92 20.38 96.62 20.9133 96.26 21.3C95.9133 21.6867 95.5067 21.9533 95.04 22.1C94.5867 22.26 94.0667 22.34 93.48 22.34H91.84Z" fill="#1C1D1E"/>
<path d="M10.7842 17.7196C14.2183 17.7196 17.0021 14.8722 17.0021 11.3598C17.0021 7.84737 14.2183 5 10.7842 5C7.35022 5 4.56641 7.84737 4.56641 11.3598C4.56641 14.8722 7.35022 17.7196 10.7842 17.7196Z" stroke="#1C1D1E" stroke-width="2"/>
<path opacity="0.59" d="M15.1025 11.3221C15.1025 11.3221 15.0861 15.7594 10.7641 15.7594C6.44223 15.7594 6.42578 11.3221 6.42578 11.3221C6.42578 11.3221 8.23291 9.82729 10.7641 11.3221C13.2953 12.8168 15.1025 11.3221 15.1025 11.3221Z" fill="#1C1D1E"/>
<path d="M6.44531 11.3599C6.44531 11.3599 6.4617 15.7973 10.7836 15.7973C15.1055 15.7973 15.122 11.3599 15.122 11.3599C15.122 11.3599 13.5 10 11.5 11.4998C8 13.4997 6.44531 11.3599 6.44531 11.3599Z" fill="#1C1D1E"/>
<path d="M5.20524 15.9596L0.783729 20.4821C0.350886 20.9248 0.35089 21.6426 0.783733 22.0853C1.21658 22.528 1.91835 22.528 2.35119 22.0853L6.7727 17.5629C7.20554 17.1202 7.20554 16.4024 6.7727 15.9596C6.33985 15.5169 5.63808 15.5169 5.20524 15.9596Z" fill="#1C1D1E"/>
</svg>
