<svg width="451" height="30" viewBox="0 0 451 30" fill="none" xmlns="http://www.w3.org/2000/svg">
<path d="M0.998047 30V0H38.2358L0.998047 30Z" fill="white"/>
<path d="M76.1885 30V0H38.2346L76.1885 30Z" fill="white"/>
<path d="M76.1885 30V0H113.426L76.1885 30Z" fill="white"/>
<path d="M150.665 30V0H113.427L150.665 30Z" fill="white"/>
<path d="M150.665 30V0H187.903L150.665 30Z" fill="white"/>
<path d="M225.856 30V0H187.903L225.856 30Z" fill="white"/>
<path d="M225.856 30V0H263.094L225.856 30Z" fill="white"/>
<path d="M300.332 30V0H263.094L300.332 30Z" fill="white"/>
<path d="M300.332 30V0H337.57L300.332 30Z" fill="white"/>
<path d="M375.524 30V0H337.571L375.524 30Z" fill="white"/>
<path d="M375.524 30V0H412.762L375.524 30Z" fill="white"/>
<path d="M450 30V0H412.762L450 30Z" fill="white"/>
<line x1="0.5" x2="0.5" y2="30" stroke="#EFEFEF"/>
<line x1="450.5" x2="450.5" y2="30" stroke="#EFEFEF"/>
</svg>
